HIERARCHY
ROOT Hips
{
  OFFSET 0 89.5177 0.535
  CHANNELS 6 Xposition Yposition Zposition Zrotation Xrotation Yrotation
  JOINT Spine
  {
    OFFSET 12.0259 -0.162855 1.69034e-005
    CHANNELS 3 Zrotation Xrotation Yrotation
    JOINT Spine1
    {
      OFFSET 15.3169 -0.0121922 0
      CHANNELS 3 Zrotation Xrotation Yrotation
      JOINT Spine2
      {
        OFFSET 15.3176 -0.0121908 0
        CHANNELS 3 Zrotation Xrotation Yrotation
        JOINT Neck
        {
          OFFSET 19.9142 1.56338 0
          CHANNELS 3 Zrotation Xrotation Yrotation
          JOINT Head
          {
            OFFSET 6.92651 0 0
            CHANNELS 3 Zrotation Xrotation Yrotation
            End Site
            {
              OFFSET 20.7666 0 0
            }
          }
          JOINT LeftShoulder
          {
            OFFSET -6.20654 0.708824 7.28219
            CHANNELS 3 Zrotation Xrotation Yrotation
            JOINT LeftArm
            {
              OFFSET 14.108 0 -1.52588e-005
              CHANNELS 3 Zrotation Xrotation Yrotation
              JOINT LeftForeArm
              {
                OFFSET 28.5802 0 0
                CHANNELS 3 Zrotation Xrotation Yrotation
                JOINT LeftHand
                {
                  OFFSET 27.092 0 0
                  CHANNELS 3 Zrotation Xrotation Yrotation
                  End Site
                  {
                    OFFSET 9.55928 -0.186424 0.145352
                  }
                }
              }
            }
          }
          JOINT RightShoulder
          {
            OFFSET -6.20654 0.708866 -7.28218
            CHANNELS 3 Zrotation Xrotation Yrotation
            JOINT RightArm
            {
              OFFSET 14.108 0 1.52588e-005
              CHANNELS 3 Zrotation Xrotation Yrotation
              JOINT RightForeArm
              {
                OFFSET 28.5802 0 0
                CHANNELS 3 Zrotation Xrotation Yrotation
                JOINT RightHand
                {
                  OFFSET 27.092 0 0
                  CHANNELS 3 Zrotation Xrotation Yrotation
                  End Site
                  {
                    OFFSET 9.55929 -0.186417 -0.145354
                  }
                }
              }
            }
          }
        }
      }
    }
  }
  JOINT LeftUpLeg
  {
    OFFSET 0.005 -0.535 8.837
    CHANNELS 3 Zrotation Xrotation Yrotation
    JOINT LeftLeg
    {
      OFFSET 39.9035 0 0
      CHANNELS 3 Zrotation Xrotation Yrotation
      JOINT LeftFoot
      {
        OFFSET 39.6689 0 0
        CHANNELS 3 Zrotation Xrotation Yrotation
        JOINT LeftToe
        {
          OFFSET 10.1624 13.6296 0
          CHANNELS 3 Zrotation Xrotation Yrotation
          End Site
          {
            OFFSET 8.38147 0 0
          }
        }
      }
    }
  }
  JOINT RightUpLeg
  {
    OFFSET 0.005 -0.535 -8.837
    CHANNELS 3 Zrotation Xrotation Yrotation
    JOINT RightLeg
    {
      OFFSET 39.9035 0 0
      CHANNELS 3 Zrotation Xrotation Yrotation
      JOINT RightFoot
      {
        OFFSET 39.6689 0 0
        CHANNELS 3 Zrotation Xrotation Yrotation
        JOINT RightToe
        {
          OFFSET 10.1624 13.6296 0
          CHANNELS 3 Zrotation Xrotation Yrotation
          End Site
          {
            OFFSET 8.38147 0 0
          }
        }
      }
    }
  }
}
MOTION
Frames:	9
Frame Time:	0.0333333
433.89 89.3947 47.8618 141.806 -82.9733 51.7899 -0.359699 -0.581592 -0.00564917 -0.719508 -1.16267 -0.0147763 -0.719508 -1.16267 -0.0147856 -8.30748e-012 -9.0191e-006 -5.27751e-005 10 -1.69084e-006 2.312e-005 178.012 -11.8091 -99.6287 65.6009 -74.4345 52.9795 -13.0575 -1.59028e-015 -6.36111e-015 -49.5623 -21.3737 -33.5584 178.893 4.73086 103.184 62.4298 60.6207 -49.1371 -27.5947 3.18055e-015 3.18055e-015 -39.7292 28.6659 40.5207 -8.66885 2.20723 -179.705 -16.1111 7.95139e-016 -5.96354e-016 16.4425 11.967 -7.31726 90 3.47873e-016 -0 2.63307 -12.6859 -178.966 -2.0138e-007 1.59028e-015 -1.98785e-016 6.76282 -4.66677 0.802368 90 -1.2424e-017 -0 
433.865 89.3918 47.8822 139.381 -82.7545 49.3516 -0.356511 -0.566982 -0.0162574 -0.713232 -1.13338 -0.0358709 -0.713233 -1.13338 -0.0358802 -8.30828e-012 -9.0191e-006 -5.27751e-005 8.74239 -0.538306 -0.0670663 178.392 -11.4083 -98.0783 67.5974 -75.7722 56.2112 -10.6916 3.18055e-015 -0 -49.537 -20.8097 -32.7423 179.095 4.59322 101.158 61.9915 60.1394 -49.4027 -25.5997 -3.18055e-015 -4.77083e-015 -40.1627 29.3968 41.329 -8.76209 1.93714 -179.735 -16.2365 -7.95139e-016 -1.98785e-016 16.4946 12.0383 -7.30089 90 -9.93923e-016 -1.59028e-015 2.68975 -12.9194 -178.92 1.88993e-006 -3.18056e-015 -3.97569e-016 6.74296 -4.56681 0.628839 90 -6.21202e-017 -1.59028e-015 
433.83 89.3848 47.8914 137.158 -82.5215 47.1171 -0.346185 -0.575049 0.00594959 -0.69236 -1.14966 0.00859932 -0.69236 -1.14966 0.00859003 -8.30828e-012 -9.0191e-006 -5.27751e-005 6.76208 -1.09026 -0.197494 178.753 -11.354 -96.3104 73.5926 -77.552 63.7535 -8.16561 0 -0 -49.6014 -20.537 -32.2193 179.26 4.5618 99.2245 62.337 60.042 -50.6791 -23.6584 3.18055e-015 3.18055e-015 -40.8665 30.0103 42.3229 -8.80142 1.47326 -179.809 -16.2701 -1.59028e-015 -3.97569e-016 16.468 11.962 -7.16507 90 -1.59028e-015 7.95139e-016 2.7469 -13.1624 -178.886 1.88993e-006 0 1.98785e-016 6.73326 -4.46329 0.464361 90 1.2424e-017 -7.95139e-016 
433.772 89.3692 47.8813 134.724 -82.3196 44.7122 -0.339064 -0.598434 0.0115091 -0.67806 -1.19646 0.0196523 -0.67806 -1.19646 0.019643 -8.30828e-012 -9.0191e-006 -5.27751e-005 4.14204 -1.44171 0.237123 179.182 -11.2753 -94.1754 86.3262 -80.2188 77.8733 -5.00436 1.59028e-015 -1.27222e-014 -49.5686 -20.5906 -32.4036 179.381 4.76311 97.4168 63.7436 60.4661 -53.5816 -21.2497 0 1.59028e-015 -42.4331 30.5317 43.8009 -8.84978 1.27337 -179.891 -16.4777 7.95139e-016 1.98785e-016 16.6332 12.0875 -7.14261 90 -1.3418e-015 -0 2.87431 -13.4141 -178.927 1.88993e-006 1.59028e-015 -1.98785e-016 6.76919 -4.3769 0.510394 90 6.21202e-017 -7.95139e-016 
433.722 89.3509 47.8745 133.433 -82.2418 43.4287 -0.344997 -0.619198 0.0188517 -0.689849 -1.23803 0.0341516 -0.689849 -1.23803 0.0341423 -8.30748e-012 -9.0191e-006 -5.27751e-005 1.66157 -1.35187 0.730496 179.6 -10.7616 -92.1435 96.5004 -81.7442 88.7473 -2.38255 5.96354e-016 3.18055e-015 -49.4464 -21.4308 -33.5999 179.569 4.50185 95.4782 63.9128 60.7294 -55.0471 -18.4737 6.36111e-015 -1.59028e-015 -44.2115 31.7097 46.2087 -8.92745 1.27989 -179.931 -16.7703 0 -1.98785e-016 16.9171 12.277 -7.12193 90 -1.04362e-015 1.59028e-015 2.96757 -13.4473 -178.957 1.88993e-006 -1.59028e-015 -3.97569e-016 6.76351 -4.22739 0.539323 90 1.2424e-017 7.95139e-016 
433.676 89.3418 47.8767 133.67 -82.3255 43.6678 -0.343598 -0.612436 0.0341145 -0.686888 -1.2246 0.0647352 -0.686888 -1.2246 0.0647259 -8.30748e-012 -9.0191e-006 -5.27751e-005 -0.989473 -1.18559 1.26163 179.954 -10.2272 -90.2596 98.6931 -82.2861 91.6561 -1.12083 0 -0 -49.2641 -22.8969 -35.512 179.76 3.85091 93.5632 62.6981 59.9452 -54.9029 -16.8699 3.18055e-015 1.59028e-015 -44.9826 33.279 47.9629 -8.89212 1.32924 -179.965 -16.8028 7.95139e-016 -1.98785e-016 16.9439 12.2326 -7.02724 90 0 -7.95139e-016 2.98239 -13.2883 -179.005 1.88993e-006 -1.59028e-015 -0 6.72568 -4.14587 0.563234 90 0 -1.59028e-015 
433.623 89.3395 47.8872 134.991 -82.4881 44.9784 -0.357573 -0.581145 0.0603888 -0.714586 -1.16219 0.117333 -0.714586 -1.16219 0.117324 -8.30748e-012 -9.0191e-006 -5.27751e-005 -3.82441 -1.27302 1.47983 -179.768 -9.97284 -88.661 96.9918 -82.0968 91.1849 -0.717752 -7.95139e-016 9.54166e-015 -49.4756 -23.4785 -36.3267 179.89 3.51634 91.7919 60.8758 58.6009 -54.7431 -16.4178 3.18055e-015 7.95139e-016 -44.9058 33.6785 47.8771 -8.88672 1.49919 -179.981 -16.8199 7.95139e-016 1.98785e-016 16.9731 12.1993 -6.96373 90 4.96962e-016 2.38542e-015 2.92643 -13.1678 -179.053 1.88993e-006 0 1.98785e-016 6.70653 -4.23465 0.603422 90 0 -0 
433.568 89.3305 47.8988 136.786 -82.6698 46.7624 -0.383168 -0.542631 0.0895533 -0.765537 -1.08538 0.175662 -0.765537 -1.08538 0.175653 -8.30708e-012 -9.0191e-006 -5.27751e-005 -6.60881 -1.46041 1.69085 -179.58 -9.61046 -87.4844 88.7588 -81.3765 84.1339 -0.691992 7.95139e-016 -0 -49.0974 -23.6327 -36.2018 179.977 3.09997 90.4212 58.5869 56.5715 -54.0447 -16.5821 -6.36111e-015 -0 -43.9556 33.5731 46.5936 -8.86838 1.60489 179.987 -16.7872 -7.95139e-016 1.98785e-016 16.9486 12.0534 -6.7921 90 -1.54058e-015 1.59028e-015 2.84809 -13.0378 -179.106 1.88993e-006 3.18056e-015 5.96354e-016 6.72966 -4.37014 0.651622 90 0 7.95139e-016 
433.503 89.323 47.8914 138.244 -82.8374 48.2268 -0.400959 -0.510137 0.090841 -0.801153 -1.02043 0.178295 -0.801154 -1.02043 0.178286 -8.30788e-012 -9.0191e-006 -5.27751e-005 -9.34286 -1.75214 2.0543 -179.414 -9.10005 -86.3018 74.685 -80.7302 71.0771 -0.490004 2.38542e-015 6.36111e-015 -48.8784 -24.0309 -36.3946 -179.952 2.61713 88.9413 56.5992 55.1405 -53.4282 -16.3995 3.18055e-015 -1.98785e-015 -43.572 33.5933 45.9102 -8.81541 1.71178 179.94 -16.7531 7.95139e-016 1.98785e-016 16.9184 11.9478 -6.68201 90 3.47873e-016 -7.95139e-016 2.81524 -12.9692 -179.178 1.88993e-006 0 -0 6.77828 -4.52329 0.713555 90 1.2424e-017 -0 
